<?xml version="1.0" encoding="UTF-8"?>
<svg width="1801px" height="188px" viewBox="0 0 1801 188" version="1.1" xmlns="http://www.w3.org/2000/svg" xmlns:xlink="http://www.w3.org/1999/xlink">
    <title>logotype-positive</title>
    <g id="Page-1" stroke="none" stroke-width="1" fill="none" fill-rule="evenodd">
        <g id="logotype-positive" transform="translate(0.686500, 0.861000)" fill="#0E152C" fill-rule="nonzero">
            <path d="M241.4585,3.277 C241.4585,3.277 215.8655,76.023 207.9045,98.459 C207.9045,98.459 189.9135,148.73 188.6265,152.777 C186.9415,158.084 183.0015,169.096 177.4285,169.096 C170.1715,169.096 165.8855,156.943 164.2675,152.777 C158.9605,139.031 156.7045,123.522 154.5155,108.993 C152.0275,92.405 150.6575,75.667 150.4155,58.895 C150.3315,52.879 151.3105,46.897 153.3085,41.222 L166.5755,3.25 L134.4015,3.25 C134.4015,3.25 108.7945,75.997 100.8345,98.432 C100.8345,98.432 82.8435,148.704 81.5565,152.75 C79.8845,158.057 75.9305,169.069 70.3715,169.069 C63.1015,169.069 58.8155,156.916 57.2105,152.75 C51.9035,139.005 49.6345,123.495 47.4455,108.967 C42.3345,73.929 41.9465,38.364 46.2905,3.223 L-4.54747351e-13,3.223 C-4.54747351e-13,3.223 34.7746,113.863 45.1105,139.496 C50.2185,152.219 63.1275,186.145 82.2595,186.145 C101.3915,186.145 107.9325,169.839 114.1025,152.724 C117.2465,144.06 126.2815,118.374 136.0075,90.684 C143.6495,113.81 150.3095,133.923 152.1935,139.496 C156.5855,152.485 170.2245,186.145 189.3435,186.145 C208.4615,186.145 215.0295,169.839 221.1855,152.724 C229.0135,131.097 273.7255,3.223 273.7255,3.223 L241.4585,3.277 Z" id="Path"></path>
            <path d="M1008.2135,9.858 L1008.2135,182.735 L978.7035,182.735 L978.7035,3.277 C994.0935,3.277 1058.8535,2.945 1071.5735,3.967 C1086.1735,5.134 1100.7635,7.602 1111.7135,18.256 C1117.4435,23.855 1121.1835,31.364 1120.8435,39.484 C1119.5935,69.536 1082.8435,77.443 1060.4235,86.027 C1056.7935,87.42 1052.7335,89.278 1051.5935,92.993 C1050.4535,96.708 1052.6235,100.343 1054.7035,103.501 C1074.2935,133.141 1096.9735,161.149 1125.0235,182.974 L1082.8835,182.974 C1082.8835,182.974 1072.6235,173.368 1068.2835,168.473 C1053.5935,152.24 1040.6135,134.536 1029.5435,115.641 C1027.1035,111.395 1024.6935,106.539 1025.9335,101.803 C1026.9735,97.822 1030.3135,94.996 1033.6735,92.688 C1050.3135,81.304 1075.2635,77.708 1085.9235,58.815 C1092.8335,46.543 1091.3435,29.799 1081.1135,19.782 C1072.7035,11.543 1059.7735,9.937 1048.5335,9.738 C1035.5435,9.499 1022.4635,9.911 1009.5235,9.911 L1008.2135,9.858 Z" id="Path"></path>
            <path d="M622.9585,3.277 L578.6185,3.277 C610.0095,52.912 618.3155,105.982 616.0195,160.778 C609.5455,156.797 593.7835,148.664 560.9455,93.033 C546.6035,68.713 541.8935,60.514 527.0335,36.513 C518.1575,22.197 506.8535,0.027 487.1245,0.027 C478.2615,0.027 473.8565,3.317 473.8565,3.317 L473.8565,182.961 L518.1845,182.961 C486.7925,133.327 478.5005,80.256 480.7955,25.461 C489.9635,25.461 517.9455,78.531 525.9855,93.126 C534.8885,109.14 579.6005,186.278 609.6915,186.278 C609.9305,186.278 609.4395,186.278 609.6915,186.278 C618.5545,186.278 622.9585,182.988 622.9585,182.988 L622.9585,3.277 Z" id="Path"></path>
            <path d="M362.4325,0.278 C310.3035,0.278 268.0325,41.806 268.0325,93.033 C268.0325,144.259 310.3035,185.774 362.4325,185.774 C414.5615,185.774 456.8325,144.246 456.8325,93.033 C456.8325,41.819 414.5875,0.278 362.4325,0.278 Z M363.2285,179.631 C331.7575,179.631 306.2435,140.889 306.2435,93.099 C306.2435,45.309 331.7575,6.567 363.2285,6.567 C394.6995,6.567 420.2795,45.309 420.2795,93.099 C420.2795,140.889 394.6865,179.631 363.2285,179.631 L363.2285,179.631 Z" id="Shape"></path>
            <path d="M1272.5435,182.921 L1272.5435,138.674 C1242.7435,169.521 1208.3435,177.853 1175.3835,175.942 L1175.3835,3.343 L1144.8735,3.343 L1144.8735,182.881 L1272.5435,182.921 Z" id="Path"></path>
            <path d="M696.0885,3.277 L648.7095,3.277 L648.7095,182.921 L696.1145,182.921 C774.3935,182.921 801.5665,142.627 801.5665,93.046 C801.5665,43.465 774.3545,3.277 696.0885,3.277 Z M696.9635,176.871 C690.9615,176.871 684.9905,175.999 679.2385,174.284 L679.2385,174.284 L679.2385,11.967 C684.9875,10.23 690.9575,9.336 696.9635,9.314 C752.2905,9.314 768.6095,46.808 768.6095,93.072 C768.6095,139.337 752.2905,176.871 696.9635,176.871 L696.9635,176.871 Z" id="Shape"></path>
            <path d="M1397.5535,119.329 C1407.7435,148.2 1419.9435,182.921 1419.9435,182.921 L1453.4435,182.921 L1399.5635,33.421 C1393.3735,16.306 1386.7635,0 1367.7235,0 C1348.6835,0 1335.0035,33.66 1330.5735,46.649 C1325.4935,61.708 1285.4635,182.921 1285.4635,182.921 L1331.7535,182.921 C1329.2335,161.824 1328.3535,140.563 1329.1035,119.329 L1397.5535,119.329 Z M1333.0035,77.178 C1335.1935,62.676 1337.4235,47.166 1342.7635,33.395 C1344.3735,29.229 1348.6635,17.075 1355.9335,17.075 C1361.4935,17.075 1365.4435,28.114 1367.1135,33.395 C1368.4435,37.441 1386.3935,87.712 1386.3935,87.712 C1388.4735,93.563 1391.7035,102.838 1395.4635,113.359 L1329.3935,113.359 C1330.0035,101.294 1331.2035,89.234 1333.0035,77.178 L1333.0035,77.178 Z" id="Shape"></path>
            <path d="M950.3335,182.921 L950.0635,138.673 C920.2465,169.521 886.1225,177.853 853.2055,175.942 L853.2055,95.328 C873.1065,94.001 893.8445,98.91 911.9015,117.591 L912.0475,95.129 L912.0475,91.149 L911.9015,68.66 C893.8445,87.341 873.1465,92.223 853.2055,90.923 L853.2055,10.189 C886.0165,8.199 916.2395,13.971 946.0835,44.818 L946.3535,3.277 L850.7375,3.343 L822.6495,3.343 L822.6495,182.881 L853.1655,182.881 L853.1655,182.802 L950.3335,182.921 Z" id="Path"></path>
            <path d="M1617.2735,3.277 L1572.9535,3.277 C1604.3235,52.912 1612.6335,105.982 1610.3335,160.778 C1603.8635,156.797 1588.1035,148.664 1555.2735,93.033 C1540.9235,68.713 1536.2235,60.514 1521.3535,36.513 C1512.4835,22.197 1501.2135,0.027 1481.4435,0.027 C1472.5835,0.027 1468.1735,3.317 1468.1735,3.317 L1468.1735,182.961 L1512.5035,182.961 C1481.1135,133.327 1472.8135,80.256 1475.1235,25.461 C1484.2835,25.461 1512.2735,78.531 1520.3135,93.126 C1529.2035,109.14 1573.9135,186.278 1604.0135,186.278 C1604.2435,186.278 1603.7735,186.278 1604.0135,186.278 C1612.8735,186.278 1617.2735,182.988 1617.2735,182.988 L1617.2735,3.277 Z" id="Path"></path>
            <path d="M1694.5235,3.277 L1647.1535,3.277 L1647.1535,182.921 L1694.5435,182.921 C1772.8235,182.921 1800.0035,142.627 1800.0035,93.046 C1800.0035,43.465 1772.7835,3.277 1694.5235,3.277 Z M1695.3935,176.871 C1689.3935,176.871 1683.4235,175.999 1677.6735,174.284 L1677.6735,174.284 L1677.6735,11.967 C1683.4235,10.23 1689.3935,9.336 1695.3935,9.314 C1750.7235,9.314 1767.0435,46.808 1767.0435,93.072 C1767.0435,139.337 1750.7235,176.871 1695.3935,176.871 L1695.3935,176.871 Z" id="Shape"></path>
        </g>
    </g>
</svg>